<mxfile host="app.diagrams.net" modified="2023-05-16T02:14:04.238Z" agent="Mozilla/5.0 (Windows NT 10.0; Win64; x64) AppleWebKit/537.36 (KHTML, like Gecko) Chrome/104.0.0.0 Safari/537.36" etag="P6QmeI8lmB9Kjq6VLMNB" version="21.2.7" type="github">
  <diagram name="第 1 页" id="gPkr5hEq4YwGMwHZJzkh">
    <mxGraphModel dx="3415" dy="698" grid="1" gridSize="10" guides="1" tooltips="1" connect="1" arrows="1" fold="1" page="1" pageScale="1" pageWidth="827" pageHeight="1169" math="0" shadow="0">
      <root>
        <mxCell id="0" />
        <mxCell id="1" parent="0" />
        <mxCell id="ZK9X63gBFhCk67TqIZ_J-2" style="edgeStyle=orthogonalEdgeStyle;rounded=0;orthogonalLoop=1;jettySize=auto;html=1;exitX=0.5;exitY=1;exitDx=0;exitDy=0;" edge="1" parent="1" source="ZK9X63gBFhCk67TqIZ_J-1">
          <mxGeometry relative="1" as="geometry">
            <mxPoint x="180.33333333333348" y="200" as="targetPoint" />
          </mxGeometry>
        </mxCell>
        <mxCell id="ZK9X63gBFhCk67TqIZ_J-1" value="点击上传文件按钮" style="rounded=0;whiteSpace=wrap;html=1;" vertex="1" parent="1">
          <mxGeometry x="120" y="80" width="120" height="60" as="geometry" />
        </mxCell>
        <mxCell id="ZK9X63gBFhCk67TqIZ_J-4" style="edgeStyle=orthogonalEdgeStyle;rounded=0;orthogonalLoop=1;jettySize=auto;html=1;exitX=0.5;exitY=1;exitDx=0;exitDy=0;" edge="1" parent="1" source="ZK9X63gBFhCk67TqIZ_J-3">
          <mxGeometry relative="1" as="geometry">
            <mxPoint x="180.33333333333348" y="330" as="targetPoint" />
          </mxGeometry>
        </mxCell>
        <mxCell id="ZK9X63gBFhCk67TqIZ_J-3" value="前端请求文件重复校验接口" style="rounded=0;whiteSpace=wrap;html=1;" vertex="1" parent="1">
          <mxGeometry x="120" y="200" width="120" height="60" as="geometry" />
        </mxCell>
        <mxCell id="ZK9X63gBFhCk67TqIZ_J-6" style="edgeStyle=orthogonalEdgeStyle;rounded=0;orthogonalLoop=1;jettySize=auto;html=1;exitX=0.5;exitY=1;exitDx=0;exitDy=0;" edge="1" parent="1" source="ZK9X63gBFhCk67TqIZ_J-5">
          <mxGeometry relative="1" as="geometry">
            <mxPoint x="180.33333333333348" y="470" as="targetPoint" />
          </mxGeometry>
        </mxCell>
        <mxCell id="ZK9X63gBFhCk67TqIZ_J-9" value="是" style="edgeLabel;html=1;align=center;verticalAlign=middle;resizable=0;points=[];" vertex="1" connectable="0" parent="ZK9X63gBFhCk67TqIZ_J-6">
          <mxGeometry x="-0.2118" y="-1" relative="1" as="geometry">
            <mxPoint as="offset" />
          </mxGeometry>
        </mxCell>
        <mxCell id="ZK9X63gBFhCk67TqIZ_J-21" style="edgeStyle=orthogonalEdgeStyle;rounded=0;orthogonalLoop=1;jettySize=auto;html=1;exitX=1;exitY=0.5;exitDx=0;exitDy=0;entryX=0;entryY=0.5;entryDx=0;entryDy=0;" edge="1" parent="1" source="ZK9X63gBFhCk67TqIZ_J-5" target="ZK9X63gBFhCk67TqIZ_J-22">
          <mxGeometry relative="1" as="geometry">
            <mxPoint x="340" y="370.16666666666674" as="targetPoint" />
          </mxGeometry>
        </mxCell>
        <mxCell id="ZK9X63gBFhCk67TqIZ_J-23" value="否" style="edgeLabel;html=1;align=center;verticalAlign=middle;resizable=0;points=[];" vertex="1" connectable="0" parent="ZK9X63gBFhCk67TqIZ_J-21">
          <mxGeometry x="-0.1516" y="-1" relative="1" as="geometry">
            <mxPoint as="offset" />
          </mxGeometry>
        </mxCell>
        <mxCell id="ZK9X63gBFhCk67TqIZ_J-5" value="是否重复" style="rhombus;whiteSpace=wrap;html=1;" vertex="1" parent="1">
          <mxGeometry x="140" y="330" width="80" height="80" as="geometry" />
        </mxCell>
        <mxCell id="ZK9X63gBFhCk67TqIZ_J-10" style="edgeStyle=orthogonalEdgeStyle;rounded=0;orthogonalLoop=1;jettySize=auto;html=1;exitX=0.5;exitY=1;exitDx=0;exitDy=0;entryX=0.5;entryY=0;entryDx=0;entryDy=0;" edge="1" parent="1" source="ZK9X63gBFhCk67TqIZ_J-7" target="ZK9X63gBFhCk67TqIZ_J-11">
          <mxGeometry relative="1" as="geometry">
            <mxPoint x="180.0689655172414" y="590" as="targetPoint" />
          </mxGeometry>
        </mxCell>
        <mxCell id="ZK9X63gBFhCk67TqIZ_J-7" value="前端请求文件新增信息接口，并在cover参数传值" style="rounded=0;whiteSpace=wrap;html=1;" vertex="1" parent="1">
          <mxGeometry x="120" y="550" width="120" height="60" as="geometry" />
        </mxCell>
        <mxCell id="ZK9X63gBFhCk67TqIZ_J-12" style="edgeStyle=orthogonalEdgeStyle;rounded=0;orthogonalLoop=1;jettySize=auto;html=1;exitX=0.5;exitY=1;exitDx=0;exitDy=0;" edge="1" parent="1" source="ZK9X63gBFhCk67TqIZ_J-11">
          <mxGeometry relative="1" as="geometry">
            <mxPoint x="180.0689655172414" y="720" as="targetPoint" />
          </mxGeometry>
        </mxCell>
        <mxCell id="ZK9X63gBFhCk67TqIZ_J-11" value="后端校验文件名称是否重复" style="rounded=0;whiteSpace=wrap;html=1;" vertex="1" parent="1">
          <mxGeometry x="120" y="630" width="120" height="60" as="geometry" />
        </mxCell>
        <mxCell id="ZK9X63gBFhCk67TqIZ_J-15" style="edgeStyle=orthogonalEdgeStyle;rounded=0;orthogonalLoop=1;jettySize=auto;html=1;exitX=0.5;exitY=1;exitDx=0;exitDy=0;" edge="1" parent="1" source="ZK9X63gBFhCk67TqIZ_J-13">
          <mxGeometry relative="1" as="geometry">
            <mxPoint x="180.0689655172414" y="850" as="targetPoint" />
          </mxGeometry>
        </mxCell>
        <mxCell id="ZK9X63gBFhCk67TqIZ_J-20" value="是" style="edgeLabel;html=1;align=center;verticalAlign=middle;resizable=0;points=[];" vertex="1" connectable="0" parent="ZK9X63gBFhCk67TqIZ_J-15">
          <mxGeometry x="-0.1701" y="1" relative="1" as="geometry">
            <mxPoint as="offset" />
          </mxGeometry>
        </mxCell>
        <mxCell id="ZK9X63gBFhCk67TqIZ_J-37" style="edgeStyle=orthogonalEdgeStyle;rounded=0;orthogonalLoop=1;jettySize=auto;html=1;exitX=0;exitY=0.5;exitDx=0;exitDy=0;entryX=1;entryY=0.5;entryDx=0;entryDy=0;" edge="1" parent="1" source="ZK9X63gBFhCk67TqIZ_J-13" target="ZK9X63gBFhCk67TqIZ_J-38">
          <mxGeometry relative="1" as="geometry">
            <mxPoint x="-10" y="760" as="targetPoint" />
          </mxGeometry>
        </mxCell>
        <mxCell id="ZK9X63gBFhCk67TqIZ_J-39" value="否" style="edgeLabel;html=1;align=center;verticalAlign=middle;resizable=0;points=[];" vertex="1" connectable="0" parent="ZK9X63gBFhCk67TqIZ_J-37">
          <mxGeometry x="-0.1765" relative="1" as="geometry">
            <mxPoint as="offset" />
          </mxGeometry>
        </mxCell>
        <mxCell id="ZK9X63gBFhCk67TqIZ_J-13" value="是否重复" style="rhombus;whiteSpace=wrap;html=1;" vertex="1" parent="1">
          <mxGeometry x="140" y="720" width="80" height="80" as="geometry" />
        </mxCell>
        <mxCell id="ZK9X63gBFhCk67TqIZ_J-17" style="edgeStyle=orthogonalEdgeStyle;rounded=0;orthogonalLoop=1;jettySize=auto;html=1;exitX=0.5;exitY=1;exitDx=0;exitDy=0;" edge="1" parent="1">
          <mxGeometry relative="1" as="geometry">
            <mxPoint x="180.0689655172414" y="989.9999999999998" as="targetPoint" />
            <mxPoint x="180" y="910" as="sourcePoint" />
          </mxGeometry>
        </mxCell>
        <mxCell id="ZK9X63gBFhCk67TqIZ_J-45" value="是" style="edgeLabel;html=1;align=center;verticalAlign=middle;resizable=0;points=[];" vertex="1" connectable="0" parent="ZK9X63gBFhCk67TqIZ_J-17">
          <mxGeometry x="0.1058" y="-1" relative="1" as="geometry">
            <mxPoint as="offset" />
          </mxGeometry>
        </mxCell>
        <mxCell id="ZK9X63gBFhCk67TqIZ_J-18" value="结束" style="ellipse;whiteSpace=wrap;html=1;aspect=fixed;" vertex="1" parent="1">
          <mxGeometry x="140" y="1410" width="80" height="80" as="geometry" />
        </mxCell>
        <mxCell id="ZK9X63gBFhCk67TqIZ_J-24" style="edgeStyle=orthogonalEdgeStyle;rounded=0;orthogonalLoop=1;jettySize=auto;html=1;exitX=0.5;exitY=1;exitDx=0;exitDy=0;" edge="1" parent="1" source="ZK9X63gBFhCk67TqIZ_J-22">
          <mxGeometry relative="1" as="geometry">
            <mxPoint x="640" y="560" as="targetPoint" />
          </mxGeometry>
        </mxCell>
        <mxCell id="ZK9X63gBFhCk67TqIZ_J-22" value="前端请求文件上传接口前端" style="rounded=0;whiteSpace=wrap;html=1;" vertex="1" parent="1">
          <mxGeometry x="580" y="340" width="120" height="60" as="geometry" />
        </mxCell>
        <mxCell id="ZK9X63gBFhCk67TqIZ_J-29" style="edgeStyle=orthogonalEdgeStyle;rounded=0;orthogonalLoop=1;jettySize=auto;html=1;exitX=0.5;exitY=1;exitDx=0;exitDy=0;entryX=0.5;entryY=0;entryDx=0;entryDy=0;" edge="1" parent="1" source="ZK9X63gBFhCk67TqIZ_J-25" target="ZK9X63gBFhCk67TqIZ_J-28">
          <mxGeometry relative="1" as="geometry" />
        </mxCell>
        <mxCell id="ZK9X63gBFhCk67TqIZ_J-25" value="请求文件新增信息接口，cover参数不传" style="rounded=0;whiteSpace=wrap;html=1;" vertex="1" parent="1">
          <mxGeometry x="580" y="500" width="120" height="60" as="geometry" />
        </mxCell>
        <mxCell id="ZK9X63gBFhCk67TqIZ_J-27" style="edgeStyle=orthogonalEdgeStyle;rounded=0;orthogonalLoop=1;jettySize=auto;html=1;exitX=0.5;exitY=1;exitDx=0;exitDy=0;entryX=0.5;entryY=0;entryDx=0;entryDy=0;" edge="1" parent="1" source="ZK9X63gBFhCk67TqIZ_J-26" target="ZK9X63gBFhCk67TqIZ_J-7">
          <mxGeometry relative="1" as="geometry" />
        </mxCell>
        <mxCell id="ZK9X63gBFhCk67TqIZ_J-26" value="前端请求文件上传接口" style="rounded=0;whiteSpace=wrap;html=1;" vertex="1" parent="1">
          <mxGeometry x="120" y="470" width="120" height="60" as="geometry" />
        </mxCell>
        <mxCell id="ZK9X63gBFhCk67TqIZ_J-30" style="edgeStyle=orthogonalEdgeStyle;rounded=0;orthogonalLoop=1;jettySize=auto;html=1;exitX=0.5;exitY=1;exitDx=0;exitDy=0;" edge="1" parent="1" source="ZK9X63gBFhCk67TqIZ_J-28">
          <mxGeometry relative="1" as="geometry">
            <mxPoint x="640.2857142857142" y="740" as="targetPoint" />
          </mxGeometry>
        </mxCell>
        <mxCell id="ZK9X63gBFhCk67TqIZ_J-28" value="后端校验文件名称是否重复" style="rounded=0;whiteSpace=wrap;html=1;" vertex="1" parent="1">
          <mxGeometry x="580" y="640" width="120" height="60" as="geometry" />
        </mxCell>
        <mxCell id="ZK9X63gBFhCk67TqIZ_J-32" style="edgeStyle=orthogonalEdgeStyle;rounded=0;orthogonalLoop=1;jettySize=auto;html=1;exitX=0.5;exitY=1;exitDx=0;exitDy=0;entryX=0.5;entryY=0;entryDx=0;entryDy=0;" edge="1" parent="1" source="ZK9X63gBFhCk67TqIZ_J-31" target="ZK9X63gBFhCk67TqIZ_J-33">
          <mxGeometry relative="1" as="geometry">
            <mxPoint x="640" y="850" as="targetPoint" />
          </mxGeometry>
        </mxCell>
        <mxCell id="ZK9X63gBFhCk67TqIZ_J-34" value="是" style="edgeLabel;html=1;align=center;verticalAlign=middle;resizable=0;points=[];" vertex="1" connectable="0" parent="ZK9X63gBFhCk67TqIZ_J-32">
          <mxGeometry x="-0.1568" relative="1" as="geometry">
            <mxPoint as="offset" />
          </mxGeometry>
        </mxCell>
        <mxCell id="ZK9X63gBFhCk67TqIZ_J-41" style="edgeStyle=orthogonalEdgeStyle;rounded=0;orthogonalLoop=1;jettySize=auto;html=1;exitX=0;exitY=0.5;exitDx=0;exitDy=0;" edge="1" parent="1" source="ZK9X63gBFhCk67TqIZ_J-31">
          <mxGeometry relative="1" as="geometry">
            <mxPoint x="490" y="780" as="targetPoint" />
          </mxGeometry>
        </mxCell>
        <mxCell id="ZK9X63gBFhCk67TqIZ_J-54" value="否" style="edgeLabel;html=1;align=center;verticalAlign=middle;resizable=0;points=[];" vertex="1" connectable="0" parent="ZK9X63gBFhCk67TqIZ_J-41">
          <mxGeometry x="0.1093" y="-3" relative="1" as="geometry">
            <mxPoint as="offset" />
          </mxGeometry>
        </mxCell>
        <mxCell id="ZK9X63gBFhCk67TqIZ_J-31" value="是否重复" style="rhombus;whiteSpace=wrap;html=1;" vertex="1" parent="1">
          <mxGeometry x="600" y="740" width="80" height="80" as="geometry" />
        </mxCell>
        <mxCell id="ZK9X63gBFhCk67TqIZ_J-35" style="edgeStyle=orthogonalEdgeStyle;rounded=0;orthogonalLoop=1;jettySize=auto;html=1;exitX=0.5;exitY=1;exitDx=0;exitDy=0;entryX=1;entryY=0.5;entryDx=0;entryDy=0;" edge="1" parent="1" source="ZK9X63gBFhCk67TqIZ_J-33" target="ZK9X63gBFhCk67TqIZ_J-18">
          <mxGeometry relative="1" as="geometry" />
        </mxCell>
        <mxCell id="ZK9X63gBFhCk67TqIZ_J-33" value="报错---提示：文件名称已存在" style="rounded=0;whiteSpace=wrap;html=1;" vertex="1" parent="1">
          <mxGeometry x="580" y="1000" width="120" height="60" as="geometry" />
        </mxCell>
        <mxCell id="ZK9X63gBFhCk67TqIZ_J-40" style="edgeStyle=orthogonalEdgeStyle;rounded=0;orthogonalLoop=1;jettySize=auto;html=1;exitX=0.5;exitY=1;exitDx=0;exitDy=0;entryX=-0.056;entryY=0.589;entryDx=0;entryDy=0;entryPerimeter=0;" edge="1" parent="1" source="ZK9X63gBFhCk67TqIZ_J-38" target="ZK9X63gBFhCk67TqIZ_J-18">
          <mxGeometry relative="1" as="geometry">
            <Array as="points">
              <mxPoint x="-200" y="1450" />
              <mxPoint x="136" y="1450" />
            </Array>
          </mxGeometry>
        </mxCell>
        <mxCell id="ZK9X63gBFhCk67TqIZ_J-38" value="新增file_resource表记录" style="rounded=0;whiteSpace=wrap;html=1;" vertex="1" parent="1">
          <mxGeometry x="-260" y="730" width="120" height="60" as="geometry" />
        </mxCell>
        <mxCell id="ZK9X63gBFhCk67TqIZ_J-43" style="edgeStyle=orthogonalEdgeStyle;rounded=0;orthogonalLoop=1;jettySize=auto;html=1;exitX=0.5;exitY=1;exitDx=0;exitDy=0;entryX=1;entryY=0.5;entryDx=0;entryDy=0;" edge="1" parent="1" source="ZK9X63gBFhCk67TqIZ_J-42" target="ZK9X63gBFhCk67TqIZ_J-18">
          <mxGeometry relative="1" as="geometry" />
        </mxCell>
        <mxCell id="ZK9X63gBFhCk67TqIZ_J-42" value="新增file_resource表记录" style="rounded=0;whiteSpace=wrap;html=1;" vertex="1" parent="1">
          <mxGeometry x="370" y="750" width="120" height="60" as="geometry" />
        </mxCell>
        <mxCell id="ZK9X63gBFhCk67TqIZ_J-48" style="edgeStyle=orthogonalEdgeStyle;rounded=0;orthogonalLoop=1;jettySize=auto;html=1;exitX=0;exitY=0.5;exitDx=0;exitDy=0;" edge="1" parent="1" source="ZK9X63gBFhCk67TqIZ_J-44">
          <mxGeometry relative="1" as="geometry">
            <mxPoint x="50" y="890" as="targetPoint" />
          </mxGeometry>
        </mxCell>
        <mxCell id="ZK9X63gBFhCk67TqIZ_J-49" value="否" style="edgeLabel;html=1;align=center;verticalAlign=middle;resizable=0;points=[];" vertex="1" connectable="0" parent="ZK9X63gBFhCk67TqIZ_J-48">
          <mxGeometry x="-0.1545" relative="1" as="geometry">
            <mxPoint as="offset" />
          </mxGeometry>
        </mxCell>
        <mxCell id="ZK9X63gBFhCk67TqIZ_J-44" value="是否覆盖" style="rhombus;whiteSpace=wrap;html=1;" vertex="1" parent="1">
          <mxGeometry x="140" y="850" width="80" height="80" as="geometry" />
        </mxCell>
        <mxCell id="ZK9X63gBFhCk67TqIZ_J-47" style="edgeStyle=orthogonalEdgeStyle;rounded=0;orthogonalLoop=1;jettySize=auto;html=1;exitX=0.5;exitY=1;exitDx=0;exitDy=0;" edge="1" parent="1" source="ZK9X63gBFhCk67TqIZ_J-46" target="ZK9X63gBFhCk67TqIZ_J-18">
          <mxGeometry relative="1" as="geometry" />
        </mxCell>
        <mxCell id="ZK9X63gBFhCk67TqIZ_J-46" value="修改file_resource表记录，修改fileId" style="rounded=0;whiteSpace=wrap;html=1;" vertex="1" parent="1">
          <mxGeometry x="120" y="1000" width="120" height="60" as="geometry" />
        </mxCell>
        <mxCell id="ZK9X63gBFhCk67TqIZ_J-51" style="edgeStyle=orthogonalEdgeStyle;rounded=0;orthogonalLoop=1;jettySize=auto;html=1;exitX=0.5;exitY=1;exitDx=0;exitDy=0;" edge="1" parent="1" source="ZK9X63gBFhCk67TqIZ_J-50">
          <mxGeometry relative="1" as="geometry">
            <mxPoint x="-10" y="1000" as="targetPoint" />
          </mxGeometry>
        </mxCell>
        <mxCell id="ZK9X63gBFhCk67TqIZ_J-50" value="重命名文件名称" style="rounded=0;whiteSpace=wrap;html=1;" vertex="1" parent="1">
          <mxGeometry x="-70" y="860" width="120" height="60" as="geometry" />
        </mxCell>
        <mxCell id="ZK9X63gBFhCk67TqIZ_J-53" style="edgeStyle=orthogonalEdgeStyle;rounded=0;orthogonalLoop=1;jettySize=auto;html=1;exitX=0.5;exitY=1;exitDx=0;exitDy=0;" edge="1" parent="1" source="ZK9X63gBFhCk67TqIZ_J-52" target="ZK9X63gBFhCk67TqIZ_J-18">
          <mxGeometry relative="1" as="geometry">
            <Array as="points">
              <mxPoint x="-10" y="1450" />
            </Array>
          </mxGeometry>
        </mxCell>
        <mxCell id="ZK9X63gBFhCk67TqIZ_J-52" value="新增ile_resource表" style="rounded=0;whiteSpace=wrap;html=1;" vertex="1" parent="1">
          <mxGeometry x="-70" y="1000" width="120" height="60" as="geometry" />
        </mxCell>
        <mxCell id="ZK9X63gBFhCk67TqIZ_J-55" style="edgeStyle=orthogonalEdgeStyle;rounded=0;orthogonalLoop=1;jettySize=auto;html=1;exitX=0.5;exitY=1;exitDx=0;exitDy=0;" edge="1" parent="1" source="ZK9X63gBFhCk67TqIZ_J-56">
          <mxGeometry relative="1" as="geometry">
            <mxPoint x="-929.6666666666665" y="210" as="targetPoint" />
          </mxGeometry>
        </mxCell>
        <mxCell id="ZK9X63gBFhCk67TqIZ_J-56" value="点击上传文件按钮" style="rounded=0;whiteSpace=wrap;html=1;" vertex="1" parent="1">
          <mxGeometry x="-990" y="90" width="120" height="60" as="geometry" />
        </mxCell>
        <mxCell id="ZK9X63gBFhCk67TqIZ_J-57" style="edgeStyle=orthogonalEdgeStyle;rounded=0;orthogonalLoop=1;jettySize=auto;html=1;exitX=0.5;exitY=1;exitDx=0;exitDy=0;" edge="1" parent="1" source="ZK9X63gBFhCk67TqIZ_J-58">
          <mxGeometry relative="1" as="geometry">
            <mxPoint x="-929.6666666666665" y="340" as="targetPoint" />
          </mxGeometry>
        </mxCell>
        <mxCell id="ZK9X63gBFhCk67TqIZ_J-58" value="前端请求文件重复校验接口" style="rounded=0;whiteSpace=wrap;html=1;" vertex="1" parent="1">
          <mxGeometry x="-990" y="210" width="120" height="60" as="geometry" />
        </mxCell>
        <mxCell id="ZK9X63gBFhCk67TqIZ_J-59" style="edgeStyle=orthogonalEdgeStyle;rounded=0;orthogonalLoop=1;jettySize=auto;html=1;exitX=0.5;exitY=1;exitDx=0;exitDy=0;" edge="1" parent="1" source="ZK9X63gBFhCk67TqIZ_J-63">
          <mxGeometry relative="1" as="geometry">
            <mxPoint x="-929.6666666666665" y="480" as="targetPoint" />
          </mxGeometry>
        </mxCell>
        <mxCell id="ZK9X63gBFhCk67TqIZ_J-60" value="是" style="edgeLabel;html=1;align=center;verticalAlign=middle;resizable=0;points=[];" vertex="1" connectable="0" parent="ZK9X63gBFhCk67TqIZ_J-59">
          <mxGeometry x="-0.2118" y="-1" relative="1" as="geometry">
            <mxPoint as="offset" />
          </mxGeometry>
        </mxCell>
        <mxCell id="ZK9X63gBFhCk67TqIZ_J-61" style="edgeStyle=orthogonalEdgeStyle;rounded=0;orthogonalLoop=1;jettySize=auto;html=1;exitX=1;exitY=0.5;exitDx=0;exitDy=0;entryX=0;entryY=0.5;entryDx=0;entryDy=0;" edge="1" parent="1" source="ZK9X63gBFhCk67TqIZ_J-63" target="ZK9X63gBFhCk67TqIZ_J-77">
          <mxGeometry relative="1" as="geometry">
            <mxPoint x="-770" y="380.16666666666674" as="targetPoint" />
          </mxGeometry>
        </mxCell>
        <mxCell id="ZK9X63gBFhCk67TqIZ_J-62" value="否" style="edgeLabel;html=1;align=center;verticalAlign=middle;resizable=0;points=[];" vertex="1" connectable="0" parent="ZK9X63gBFhCk67TqIZ_J-61">
          <mxGeometry x="-0.1516" y="-1" relative="1" as="geometry">
            <mxPoint as="offset" />
          </mxGeometry>
        </mxCell>
        <mxCell id="ZK9X63gBFhCk67TqIZ_J-63" value="是否重复" style="rhombus;whiteSpace=wrap;html=1;" vertex="1" parent="1">
          <mxGeometry x="-970" y="340" width="80" height="80" as="geometry" />
        </mxCell>
        <mxCell id="ZK9X63gBFhCk67TqIZ_J-64" style="edgeStyle=orthogonalEdgeStyle;rounded=0;orthogonalLoop=1;jettySize=auto;html=1;exitX=0.5;exitY=1;exitDx=0;exitDy=0;entryX=0.5;entryY=0;entryDx=0;entryDy=0;" edge="1" parent="1" source="ZK9X63gBFhCk67TqIZ_J-65" target="ZK9X63gBFhCk67TqIZ_J-67">
          <mxGeometry relative="1" as="geometry">
            <mxPoint x="-929.9310344827586" y="600" as="targetPoint" />
          </mxGeometry>
        </mxCell>
        <mxCell id="ZK9X63gBFhCk67TqIZ_J-65" value="前端请求文件新增信息接口，并在cover参数传值" style="rounded=0;whiteSpace=wrap;html=1;" vertex="1" parent="1">
          <mxGeometry x="-990" y="560" width="120" height="60" as="geometry" />
        </mxCell>
        <mxCell id="ZK9X63gBFhCk67TqIZ_J-66" style="edgeStyle=orthogonalEdgeStyle;rounded=0;orthogonalLoop=1;jettySize=auto;html=1;exitX=0.5;exitY=1;exitDx=0;exitDy=0;" edge="1" parent="1" source="ZK9X63gBFhCk67TqIZ_J-67">
          <mxGeometry relative="1" as="geometry">
            <mxPoint x="-929.9310344827586" y="730" as="targetPoint" />
          </mxGeometry>
        </mxCell>
        <mxCell id="ZK9X63gBFhCk67TqIZ_J-67" value="后端校验文件名称是否重复" style="rounded=0;whiteSpace=wrap;html=1;" vertex="1" parent="1">
          <mxGeometry x="-990" y="640" width="120" height="60" as="geometry" />
        </mxCell>
        <mxCell id="ZK9X63gBFhCk67TqIZ_J-68" style="edgeStyle=orthogonalEdgeStyle;rounded=0;orthogonalLoop=1;jettySize=auto;html=1;exitX=0.5;exitY=1;exitDx=0;exitDy=0;" edge="1" parent="1" source="ZK9X63gBFhCk67TqIZ_J-72">
          <mxGeometry relative="1" as="geometry">
            <mxPoint x="-929.9310344827586" y="860" as="targetPoint" />
          </mxGeometry>
        </mxCell>
        <mxCell id="ZK9X63gBFhCk67TqIZ_J-69" value="是" style="edgeLabel;html=1;align=center;verticalAlign=middle;resizable=0;points=[];" vertex="1" connectable="0" parent="ZK9X63gBFhCk67TqIZ_J-68">
          <mxGeometry x="-0.1701" y="1" relative="1" as="geometry">
            <mxPoint as="offset" />
          </mxGeometry>
        </mxCell>
        <mxCell id="ZK9X63gBFhCk67TqIZ_J-70" style="edgeStyle=orthogonalEdgeStyle;rounded=0;orthogonalLoop=1;jettySize=auto;html=1;exitX=0;exitY=0.5;exitDx=0;exitDy=0;entryX=1;entryY=0.5;entryDx=0;entryDy=0;" edge="1" parent="1" source="ZK9X63gBFhCk67TqIZ_J-72" target="ZK9X63gBFhCk67TqIZ_J-92">
          <mxGeometry relative="1" as="geometry">
            <mxPoint x="-1120" y="770" as="targetPoint" />
          </mxGeometry>
        </mxCell>
        <mxCell id="ZK9X63gBFhCk67TqIZ_J-71" value="否" style="edgeLabel;html=1;align=center;verticalAlign=middle;resizable=0;points=[];" vertex="1" connectable="0" parent="ZK9X63gBFhCk67TqIZ_J-70">
          <mxGeometry x="-0.1765" relative="1" as="geometry">
            <mxPoint as="offset" />
          </mxGeometry>
        </mxCell>
        <mxCell id="ZK9X63gBFhCk67TqIZ_J-72" value="是否重复" style="rhombus;whiteSpace=wrap;html=1;" vertex="1" parent="1">
          <mxGeometry x="-970" y="730" width="80" height="80" as="geometry" />
        </mxCell>
        <mxCell id="ZK9X63gBFhCk67TqIZ_J-73" style="edgeStyle=orthogonalEdgeStyle;rounded=0;orthogonalLoop=1;jettySize=auto;html=1;exitX=0.5;exitY=1;exitDx=0;exitDy=0;" edge="1" parent="1">
          <mxGeometry relative="1" as="geometry">
            <mxPoint x="-929.9310344827586" y="999.9999999999998" as="targetPoint" />
            <mxPoint x="-930" y="920" as="sourcePoint" />
          </mxGeometry>
        </mxCell>
        <mxCell id="ZK9X63gBFhCk67TqIZ_J-74" value="是" style="edgeLabel;html=1;align=center;verticalAlign=middle;resizable=0;points=[];" vertex="1" connectable="0" parent="ZK9X63gBFhCk67TqIZ_J-73">
          <mxGeometry x="0.1058" y="-1" relative="1" as="geometry">
            <mxPoint as="offset" />
          </mxGeometry>
        </mxCell>
        <mxCell id="ZK9X63gBFhCk67TqIZ_J-75" value="结束" style="ellipse;whiteSpace=wrap;html=1;aspect=fixed;" vertex="1" parent="1">
          <mxGeometry x="-970" y="1420" width="80" height="80" as="geometry" />
        </mxCell>
        <mxCell id="ZK9X63gBFhCk67TqIZ_J-76" style="edgeStyle=orthogonalEdgeStyle;rounded=0;orthogonalLoop=1;jettySize=auto;html=1;exitX=0.5;exitY=1;exitDx=0;exitDy=0;" edge="1" parent="1" source="ZK9X63gBFhCk67TqIZ_J-77">
          <mxGeometry relative="1" as="geometry">
            <mxPoint x="-470" y="570" as="targetPoint" />
          </mxGeometry>
        </mxCell>
        <mxCell id="ZK9X63gBFhCk67TqIZ_J-77" value="前端请求文件上传接口前端" style="rounded=0;whiteSpace=wrap;html=1;" vertex="1" parent="1">
          <mxGeometry x="-530" y="350" width="120" height="60" as="geometry" />
        </mxCell>
        <mxCell id="ZK9X63gBFhCk67TqIZ_J-78" style="edgeStyle=orthogonalEdgeStyle;rounded=0;orthogonalLoop=1;jettySize=auto;html=1;exitX=0.5;exitY=1;exitDx=0;exitDy=0;entryX=0.5;entryY=0;entryDx=0;entryDy=0;" edge="1" parent="1" source="ZK9X63gBFhCk67TqIZ_J-79" target="ZK9X63gBFhCk67TqIZ_J-83">
          <mxGeometry relative="1" as="geometry" />
        </mxCell>
        <mxCell id="ZK9X63gBFhCk67TqIZ_J-79" value="请求文件新增信息接口，cover参数不传" style="rounded=0;whiteSpace=wrap;html=1;" vertex="1" parent="1">
          <mxGeometry x="-530" y="510" width="120" height="60" as="geometry" />
        </mxCell>
        <mxCell id="ZK9X63gBFhCk67TqIZ_J-80" style="edgeStyle=orthogonalEdgeStyle;rounded=0;orthogonalLoop=1;jettySize=auto;html=1;exitX=0.5;exitY=1;exitDx=0;exitDy=0;entryX=0.5;entryY=0;entryDx=0;entryDy=0;" edge="1" parent="1" source="ZK9X63gBFhCk67TqIZ_J-81" target="ZK9X63gBFhCk67TqIZ_J-65">
          <mxGeometry relative="1" as="geometry" />
        </mxCell>
        <mxCell id="ZK9X63gBFhCk67TqIZ_J-81" value="前端请求文件上传接口" style="rounded=0;whiteSpace=wrap;html=1;" vertex="1" parent="1">
          <mxGeometry x="-990" y="480" width="120" height="60" as="geometry" />
        </mxCell>
        <mxCell id="ZK9X63gBFhCk67TqIZ_J-82" style="edgeStyle=orthogonalEdgeStyle;rounded=0;orthogonalLoop=1;jettySize=auto;html=1;exitX=0.5;exitY=1;exitDx=0;exitDy=0;" edge="1" parent="1" source="ZK9X63gBFhCk67TqIZ_J-83">
          <mxGeometry relative="1" as="geometry">
            <mxPoint x="-469.7142857142858" y="750" as="targetPoint" />
          </mxGeometry>
        </mxCell>
        <mxCell id="ZK9X63gBFhCk67TqIZ_J-83" value="后端校验文件名称是否重复" style="rounded=0;whiteSpace=wrap;html=1;" vertex="1" parent="1">
          <mxGeometry x="-530" y="650" width="120" height="60" as="geometry" />
        </mxCell>
        <mxCell id="ZK9X63gBFhCk67TqIZ_J-84" style="edgeStyle=orthogonalEdgeStyle;rounded=0;orthogonalLoop=1;jettySize=auto;html=1;exitX=0.5;exitY=1;exitDx=0;exitDy=0;entryX=0.5;entryY=0;entryDx=0;entryDy=0;" edge="1" parent="1" source="ZK9X63gBFhCk67TqIZ_J-88" target="ZK9X63gBFhCk67TqIZ_J-90">
          <mxGeometry relative="1" as="geometry">
            <mxPoint x="-470" y="860" as="targetPoint" />
          </mxGeometry>
        </mxCell>
        <mxCell id="ZK9X63gBFhCk67TqIZ_J-85" value="是" style="edgeLabel;html=1;align=center;verticalAlign=middle;resizable=0;points=[];" vertex="1" connectable="0" parent="ZK9X63gBFhCk67TqIZ_J-84">
          <mxGeometry x="-0.1568" relative="1" as="geometry">
            <mxPoint as="offset" />
          </mxGeometry>
        </mxCell>
        <mxCell id="ZK9X63gBFhCk67TqIZ_J-86" style="edgeStyle=orthogonalEdgeStyle;rounded=0;orthogonalLoop=1;jettySize=auto;html=1;exitX=0;exitY=0.5;exitDx=0;exitDy=0;" edge="1" parent="1" source="ZK9X63gBFhCk67TqIZ_J-88">
          <mxGeometry relative="1" as="geometry">
            <mxPoint x="-620" y="790" as="targetPoint" />
          </mxGeometry>
        </mxCell>
        <mxCell id="ZK9X63gBFhCk67TqIZ_J-87" value="否" style="edgeLabel;html=1;align=center;verticalAlign=middle;resizable=0;points=[];" vertex="1" connectable="0" parent="ZK9X63gBFhCk67TqIZ_J-86">
          <mxGeometry x="0.1093" y="-3" relative="1" as="geometry">
            <mxPoint as="offset" />
          </mxGeometry>
        </mxCell>
        <mxCell id="ZK9X63gBFhCk67TqIZ_J-88" value="是否重复" style="rhombus;whiteSpace=wrap;html=1;" vertex="1" parent="1">
          <mxGeometry x="-510" y="750" width="80" height="80" as="geometry" />
        </mxCell>
        <mxCell id="ZK9X63gBFhCk67TqIZ_J-89" style="edgeStyle=orthogonalEdgeStyle;rounded=0;orthogonalLoop=1;jettySize=auto;html=1;exitX=0.5;exitY=1;exitDx=0;exitDy=0;entryX=1;entryY=0.5;entryDx=0;entryDy=0;" edge="1" parent="1" source="ZK9X63gBFhCk67TqIZ_J-90" target="ZK9X63gBFhCk67TqIZ_J-75">
          <mxGeometry relative="1" as="geometry" />
        </mxCell>
        <mxCell id="ZK9X63gBFhCk67TqIZ_J-90" value="报错---提示：文件名称已存在" style="rounded=0;whiteSpace=wrap;html=1;" vertex="1" parent="1">
          <mxGeometry x="-530" y="1010" width="120" height="60" as="geometry" />
        </mxCell>
        <mxCell id="ZK9X63gBFhCk67TqIZ_J-91" style="edgeStyle=orthogonalEdgeStyle;rounded=0;orthogonalLoop=1;jettySize=auto;html=1;exitX=0.5;exitY=1;exitDx=0;exitDy=0;entryX=-0.056;entryY=0.589;entryDx=0;entryDy=0;entryPerimeter=0;" edge="1" parent="1" source="ZK9X63gBFhCk67TqIZ_J-92" target="ZK9X63gBFhCk67TqIZ_J-75">
          <mxGeometry relative="1" as="geometry">
            <Array as="points">
              <mxPoint x="-1310" y="1460" />
              <mxPoint x="-974" y="1460" />
            </Array>
          </mxGeometry>
        </mxCell>
        <mxCell id="ZK9X63gBFhCk67TqIZ_J-92" value="新增file_resource表记录" style="rounded=0;whiteSpace=wrap;html=1;" vertex="1" parent="1">
          <mxGeometry x="-1370" y="740" width="120" height="60" as="geometry" />
        </mxCell>
        <mxCell id="ZK9X63gBFhCk67TqIZ_J-93" style="edgeStyle=orthogonalEdgeStyle;rounded=0;orthogonalLoop=1;jettySize=auto;html=1;exitX=0.5;exitY=1;exitDx=0;exitDy=0;entryX=1;entryY=0.5;entryDx=0;entryDy=0;" edge="1" parent="1" source="ZK9X63gBFhCk67TqIZ_J-94" target="ZK9X63gBFhCk67TqIZ_J-75">
          <mxGeometry relative="1" as="geometry" />
        </mxCell>
        <mxCell id="ZK9X63gBFhCk67TqIZ_J-94" value="新增file_resource表记录" style="rounded=0;whiteSpace=wrap;html=1;" vertex="1" parent="1">
          <mxGeometry x="-740" y="760" width="120" height="60" as="geometry" />
        </mxCell>
        <mxCell id="ZK9X63gBFhCk67TqIZ_J-95" style="edgeStyle=orthogonalEdgeStyle;rounded=0;orthogonalLoop=1;jettySize=auto;html=1;exitX=0;exitY=0.5;exitDx=0;exitDy=0;" edge="1" parent="1" source="ZK9X63gBFhCk67TqIZ_J-97">
          <mxGeometry relative="1" as="geometry">
            <mxPoint x="-1060" y="900" as="targetPoint" />
          </mxGeometry>
        </mxCell>
        <mxCell id="ZK9X63gBFhCk67TqIZ_J-96" value="否" style="edgeLabel;html=1;align=center;verticalAlign=middle;resizable=0;points=[];" vertex="1" connectable="0" parent="ZK9X63gBFhCk67TqIZ_J-95">
          <mxGeometry x="-0.1545" relative="1" as="geometry">
            <mxPoint as="offset" />
          </mxGeometry>
        </mxCell>
        <mxCell id="ZK9X63gBFhCk67TqIZ_J-97" value="是否覆盖" style="rhombus;whiteSpace=wrap;html=1;" vertex="1" parent="1">
          <mxGeometry x="-970" y="860" width="80" height="80" as="geometry" />
        </mxCell>
        <mxCell id="ZK9X63gBFhCk67TqIZ_J-98" style="edgeStyle=orthogonalEdgeStyle;rounded=0;orthogonalLoop=1;jettySize=auto;html=1;exitX=0.5;exitY=1;exitDx=0;exitDy=0;" edge="1" parent="1" source="ZK9X63gBFhCk67TqIZ_J-99" target="ZK9X63gBFhCk67TqIZ_J-75">
          <mxGeometry relative="1" as="geometry" />
        </mxCell>
        <mxCell id="ZK9X63gBFhCk67TqIZ_J-99" value="修改file_resource表记录，修改fileId" style="rounded=0;whiteSpace=wrap;html=1;" vertex="1" parent="1">
          <mxGeometry x="-990" y="1010" width="120" height="60" as="geometry" />
        </mxCell>
        <mxCell id="ZK9X63gBFhCk67TqIZ_J-100" style="edgeStyle=orthogonalEdgeStyle;rounded=0;orthogonalLoop=1;jettySize=auto;html=1;exitX=0.5;exitY=1;exitDx=0;exitDy=0;" edge="1" parent="1" source="ZK9X63gBFhCk67TqIZ_J-101">
          <mxGeometry relative="1" as="geometry">
            <mxPoint x="-1120" y="1010" as="targetPoint" />
          </mxGeometry>
        </mxCell>
        <mxCell id="ZK9X63gBFhCk67TqIZ_J-101" value="重命名文件名称" style="rounded=0;whiteSpace=wrap;html=1;" vertex="1" parent="1">
          <mxGeometry x="-1180" y="870" width="120" height="60" as="geometry" />
        </mxCell>
        <mxCell id="ZK9X63gBFhCk67TqIZ_J-102" style="edgeStyle=orthogonalEdgeStyle;rounded=0;orthogonalLoop=1;jettySize=auto;html=1;exitX=0.5;exitY=1;exitDx=0;exitDy=0;" edge="1" parent="1" source="ZK9X63gBFhCk67TqIZ_J-103" target="ZK9X63gBFhCk67TqIZ_J-75">
          <mxGeometry relative="1" as="geometry">
            <Array as="points">
              <mxPoint x="-1120" y="1460" />
            </Array>
          </mxGeometry>
        </mxCell>
        <mxCell id="ZK9X63gBFhCk67TqIZ_J-103" value="新增ile_resource表" style="rounded=0;whiteSpace=wrap;html=1;" vertex="1" parent="1">
          <mxGeometry x="-1180" y="1010" width="120" height="60" as="geometry" />
        </mxCell>
      </root>
    </mxGraphModel>
  </diagram>
</mxfile>
